<svg xmlns="http://www.w3.org/2000/svg" viewBox="0 0 512 512">
  <defs>
    <linearGradient id="bgGrad" x1="0%" y1="0%" x2="100%" y2="100%">
      <stop offset="0%" style="stop-color:#2d5016"/>
      <stop offset="100%" style="stop-color:#1e3a0f"/>
    </linearGradient>
  </defs>
  <!-- Background -->
  <rect width="512" height="512" rx="64" fill="url(#bgGrad)"/>
  <!-- Compass rose base -->
  <circle cx="256" cy="256" r="180" fill="none" stroke="#d4a574" stroke-width="8"/>
  <circle cx="256" cy="256" r="160" fill="none" stroke="#d4a574" stroke-width="2"/>
  <!-- Cardinal directions -->
  <polygon points="256,76 276,196 256,176 236,196" fill="#f5f0e6"/>
  <polygon points="256,436 276,316 256,336 236,316" fill="#d4a574"/>
  <polygon points="76,256 196,236 176,256 196,276" fill="#d4a574"/>
  <polygon points="436,256 316,236 336,256 316,276" fill="#d4a574"/>
  <!-- Inner circle -->
  <circle cx="256" cy="256" r="40" fill="#8b4513"/>
  <circle cx="256" cy="256" r="30" fill="#d4a574"/>
  <!-- Route dots -->
  <circle cx="180" cy="180" r="16" fill="#f5f0e6"/>
  <circle cx="332" cy="180" r="16" fill="#f5f0e6"/>
  <circle cx="180" cy="332" r="16" fill="#f5f0e6"/>
  <circle cx="332" cy="332" r="16" fill="#f5f0e6"/>
  <!-- Connecting lines -->
  <path d="M180,180 L256,256 L332,180" fill="none" stroke="#f5f0e6" stroke-width="4" stroke-linecap="round"/>
  <path d="M256,256 L180,332" fill="none" stroke="#f5f0e6" stroke-width="4" stroke-linecap="round"/>
  <path d="M256,256 L332,332" fill="none" stroke="#f5f0e6" stroke-width="4" stroke-linecap="round"/>
</svg>
